<?xml version="1.0" encoding="UTF-8"?>
<svg width="512" height="512" viewBox="0 0 512 512" fill="none" xmlns="http://www.w3.org/2000/svg">
  <!-- Fond circulaire -->
  <circle cx="256" cy="256" r="256" fill="#1E293B"/>
  
  <!-- Forme stylisée -->
  <path d="M256 128C185.307 128 128 185.307 128 256C128 326.693 185.307 384 256 384C326.693 384 384 326.693 384 256C384 185.307 326.693 128 256 128ZM256 352C203.065 352 160 308.935 160 256C160 203.065 203.065 160 256 160C308.935 160 352 203.065 352 256C352 308.935 308.935 352 256 352Z" fill="#E2E8F0"/>
  
  <!-- Point central -->
  <circle cx="256" cy="256" r="32" fill="#E2E8F0"/>
  
  <!-- Lignes décoratives -->
  <path d="M256 96V128" stroke="#E2E8F0" stroke-width="16" stroke-linecap="round"/>
  <path d="M256 384V416" stroke="#E2E8F0" stroke-width="16" stroke-linecap="round"/>
  <path d="M96 256H128" stroke="#E2E8F0" stroke-width="16" stroke-linecap="round"/>
  <path d="M384 256H416" stroke="#E2E8F0" stroke-width="16" stroke-linecap="round"/>
</svg> 